<svg width="24" height="24" viewBox="0 0 24 24" fill="none" xmlns="http://www.w3.org/2000/svg">
<rect width="24" height="24" rx="6.4" fill="#48BD54"/>
<path d="M7.16129 14.6452V11.1613H6V10H8.32258V14.6452H7.16129ZM9.87097 14.6452V12.7097C9.87097 12.4903 9.94529 12.3066 10.0939 12.1585C10.2426 12.0103 10.4263 11.936 10.6452 11.9355H12.1935V11.1613H9.87097V10H12.5806C12.8 10 12.984 10.0743 13.1326 10.223C13.2813 10.3716 13.3554 10.5554 13.3548 10.7742V11.9355C13.3548 12.1548 13.2805 12.3388 13.1319 12.4875C12.9832 12.6361 12.7995 12.7102 12.5806 12.7097H11.0323V13.4839H13.3548V14.6452H9.87097ZM14.5161 14.6452V13.4839H16.8387V12.7097H15.2903V11.9355H16.8387V11.1613H14.5161V10H17.2258C17.4452 10 17.6292 10.0743 17.7778 10.223C17.9264 10.3716 18.0005 10.5554 18 10.7742V13.871C18 14.0903 17.9257 14.2743 17.777 14.423C17.6284 14.5716 17.4446 14.6457 17.2258 14.6452H14.5161Z" fill="black"/>
</svg>
