<svg width="24" height="24" viewBox="0 0 24 24" fill="none" xmlns="http://www.w3.org/2000/svg">
<rect width="24" height="24" rx="6.4" fill="#FF7892"/>
<path d="M13.1043 10.9838V13.3332H15.1669C15.6531 13.3332 16.1195 13.5264 16.4633 13.8702C16.8071 14.2141 17.0003 14.6804 17.0003 15.1666H6C6 14.6804 6.19316 14.2141 6.53698 13.8702C6.88081 13.5264 7.34714 13.3332 7.83338 13.3332H9.89593V10.9838C9.42317 10.6442 9.07033 10.1635 8.88819 9.61065C8.70605 9.05784 8.704 8.46149 8.88234 7.90744C9.06069 7.35338 9.41022 6.8702 9.88064 6.52744C10.3511 6.18467 10.9181 6 11.5001 6C12.0822 6 12.6492 6.18467 13.1196 6.52744C13.5901 6.8702 13.9396 7.35338 14.1179 7.90744C14.2963 8.46149 14.2942 9.05784 14.1121 9.61065C13.9299 10.1635 13.5771 10.6442 13.1043 10.9838ZM6 17V16.0833H17.0003V17H6Z" fill="black"/>
</svg>
