<svg width="24" height="24" viewBox="0 0 24 24" fill="none" xmlns="http://www.w3.org/2000/svg">
<rect width="24" height="24" rx="6.4" fill="#FF8585"/>
<path d="M8 13.4185C8 15.5664 9.35212 16.9185 11.5 16.9185C13.6479 16.9185 15 15.5664 15 13.4185C15 11.1136 12.4909 8.002 11.7214 7.10196C11.694 7.06999 11.6601 7.04432 11.6218 7.02671C11.5836 7.00911 11.542 7 11.4999 7C11.4578 7 11.4162 7.00911 11.3779 7.02671C11.3397 7.04432 11.3057 7.06999 11.2783 7.10196C10.5091 8.002 8 11.1136 8 13.4185Z" stroke="black" stroke-width="0.777778" stroke-miterlimit="10"/>
<path d="M9.36108 13.6129C9.36108 14.077 9.54546 14.5222 9.87365 14.8504C10.2018 15.1785 10.647 15.3629 11.1111 15.3629" stroke="black" stroke-width="0.777778" stroke-linecap="round" stroke-linejoin="round"/>
</svg>
