<svg width="24" height="24" viewBox="0 0 24 24" fill="none" xmlns="http://www.w3.org/2000/svg">
<rect width="24" height="24" rx="6.4" fill="#F55454"/>
<path d="M12.9996 7.00215L11.5 8.50176H14.4992L11.5 11.501L12.499 12.5L15.4982 9.50078V12.5L16.9979 11.0004L17 7L12.9996 7.00215ZM10.501 12.5L7.50176 15.4992V12.5L6.00215 13.9996L6 18L10.0004 17.9979L11.5 16.4982H8.50078L11.5 13.499L10.501 12.5Z" fill="black"/>
<path d="M16.9979 13.9996L15.4982 12.5L15.4982 15.4992L12.499 12.5L11.5 13.499L14.4992 16.4982L11.5 16.4982L12.9996 17.9979L17 18L16.9979 13.9996ZM11.5 11.501L8.50078 8.50176L11.5 8.50176L10.0004 7.00215L6 7L6.00215 11.0004L7.50176 12.5L7.50176 9.50078L10.501 12.5L11.5 11.501Z" fill="black"/>
</svg>
