<svg width="24" height="24" viewBox="0 0 24 24" fill="none" xmlns="http://www.w3.org/2000/svg">
<rect width="24" height="24" rx="6.4" fill="#7882FF"/>
<path d="M8.16667 19C7.76944 19 7.42952 18.8587 7.14689 18.5761C6.86426 18.2934 6.7227 17.9533 6.72222 17.5556V8.16667H6V6.72222H9.61111V6H13.9444V6.72222H17.5556V8.16667H16.8333V17.5556C16.8333 17.9528 16.692 18.2929 16.4094 18.5761C16.1268 18.8592 15.7866 19.0005 15.3889 19H8.16667ZM15.3889 8.16667H8.16667V17.5556H15.3889V8.16667ZM9.61111 16.1111H11.0556V9.61111H9.61111V16.1111ZM12.5 16.1111H13.9444V9.61111H12.5V16.1111Z" fill="black"/>
</svg>
