<svg width="24" height="24" viewBox="0 0 24 24" fill="none" xmlns="http://www.w3.org/2000/svg">
<rect width="24" height="24" rx="6.4" fill="#19B1D4"/>
<path d="M15.2143 14.6151L17.2241 12.6061L16.7464 12.1087L15.5616 13.2786V10.3849H14.867V13.2786L13.6821 12.1087L13.2044 12.6061L15.2143 14.6151ZM6.26971 18C5.90776 18 5.60579 17.879 5.36379 17.637C5.12179 17.395 5.00052 17.0928 5 16.7303V8.26971C5 7.90776 5.12126 7.60579 5.36379 7.36379C5.60631 7.12179 5.90802 7.00052 6.26893 7H17.8739C18.2354 7 18.5371 7.12126 18.7791 7.36379C19.0211 7.60631 19.1423 7.90829 19.1429 8.26971V16.7311C19.1429 17.0925 19.0216 17.3945 18.7791 17.637C18.5365 17.8795 18.2348 18.0005 17.8739 18H6.26971ZM6.26971 17.2143H17.8739C17.9944 17.2143 18.1052 17.164 18.2063 17.0634C18.3074 16.9629 18.3577 16.8518 18.3571 16.7303V8.26971C18.3571 8.14871 18.3069 8.03767 18.2063 7.93657C18.1057 7.83548 17.9949 7.78519 17.8739 7.78571H6.26893C6.14845 7.78571 6.03767 7.836 5.93657 7.93657C5.83548 8.03714 5.78519 8.14819 5.78571 8.26971V16.7311C5.78571 16.8515 5.836 16.9623 5.93657 17.0634C6.03714 17.1645 6.14793 17.2148 6.26893 17.2143M7.20629 14.6151H7.90086V11.0794H9.17057V13.4366H9.86514V11.0794H11.1349V14.6151H11.8294V10.9286C11.8294 10.7662 11.7794 10.635 11.6794 10.5349C11.5793 10.4349 11.4481 10.3849 11.2857 10.3849H7.75C7.58762 10.3849 7.4564 10.4349 7.35636 10.5349C7.25631 10.6355 7.20629 10.7667 7.20629 10.9286V14.6151Z" fill="black"/>
</svg>
