<svg width="24" height="24" viewBox="0 0 24 24" fill="none" xmlns="http://www.w3.org/2000/svg">
<rect width="24" height="24" rx="6.4" fill="#7882FF"/>
<path d="M14.4604 11.7619H12.8731V13.3492C12.8731 13.4333 12.8396 13.5141 12.7801 13.5736C12.7205 13.6332 12.6398 13.6666 12.5556 13.6666C12.4714 13.6666 12.3907 13.6332 12.3311 13.5736C12.2716 13.5141 12.2381 13.4333 12.2381 13.3492V11.7619H10.6508C10.5666 11.7619 10.4859 11.7284 10.4264 11.6689C10.3668 11.6093 10.3334 11.5286 10.3334 11.4444C10.3334 11.3602 10.3668 11.2794 10.4264 11.2199C10.4859 11.1604 10.5666 11.1269 10.6508 11.1269H12.2381V9.53963C12.2381 9.45543 12.2716 9.37469 12.3311 9.31515C12.3907 9.25561 12.4714 9.22217 12.5556 9.22217C12.6398 9.22217 12.7205 9.25561 12.7801 9.31515C12.8396 9.37469 12.8731 9.45543 12.8731 9.53963V11.1269H14.4604C14.5446 11.1269 14.6253 11.1604 14.6848 11.2199C14.7444 11.2794 14.7778 11.3602 14.7778 11.4444C14.7778 11.5286 14.7444 11.6093 14.6848 11.6689C14.6253 11.7284 14.5446 11.7619 14.4604 11.7619Z" fill="black"/>
<rect x="8.38886" y="7.27778" width="8.33333" height="8.33333" stroke="black" stroke-width="0.555556"/>
<line x1="7.27778" y1="9.22217" x2="7.27778" y2="16.9999" stroke="black" stroke-width="0.555556"/>
<line x1="14.7777" y1="16.7221" x2="6.99993" y2="16.7221" stroke="black" stroke-width="0.555556"/>
</svg>
