<svg width="24" height="24" viewBox="0 0 24 24" fill="none" xmlns="http://www.w3.org/2000/svg">
<rect width="24" height="24" rx="6.4" fill="#48BD54"/>
<path d="M11.4 15H12.6V11.4H11.4V15ZM12 10.2C12.17 10.2 12.3126 10.1424 12.4278 10.0272C12.543 9.912 12.6004 9.7696 12.6 9.6C12.5996 9.4304 12.542 9.288 12.4272 9.1728C12.3124 9.0576 12.17 9 12 9C11.83 9 11.6876 9.0576 11.5728 9.1728C11.458 9.288 11.4004 9.4304 11.4 9.6C11.3996 9.7696 11.4572 9.9122 11.5728 10.0278C11.6884 10.1434 11.8308 10.2008 12 10.2ZM12 18C11.17 18 10.39 17.8424 9.66 17.5272C8.93 17.212 8.295 16.7846 7.755 16.245C7.215 15.7054 6.7876 15.0704 6.4728 14.34C6.158 13.6096 6.0004 12.8296 6 12C5.9996 11.1704 6.1572 10.3904 6.4728 9.66C6.7884 8.9296 7.2158 8.2946 7.755 7.755C8.2942 7.2154 8.9292 6.788 9.66 6.4728C10.3908 6.1576 11.1708 6 12 6C12.8292 6 13.6092 6.1576 14.34 6.4728C15.0708 6.788 15.7058 7.2154 16.245 7.755C16.7842 8.2946 17.2118 8.9296 17.5278 9.66C17.8438 10.3904 18.0012 11.1704 18 12C17.9988 12.8296 17.8412 13.6096 17.5272 14.34C17.2132 15.0704 16.7858 15.7054 16.245 16.245C15.7042 16.7846 15.0692 17.2122 14.34 17.5278C13.6108 17.8434 12.8308 18.0008 12 18ZM12 16.8C13.34 16.8 14.475 16.335 15.405 15.405C16.335 14.475 16.8 13.34 16.8 12C16.8 10.66 16.335 9.525 15.405 8.595C14.475 7.665 13.34 7.2 12 7.2C10.66 7.2 9.525 7.665 8.595 8.595C7.665 9.525 7.2 10.66 7.2 12C7.2 13.34 7.665 14.475 8.595 15.405C9.525 16.335 10.66 16.8 12 16.8Z" fill="black"/>
</svg>
