<svg width="24" height="24" viewBox="0 0 24 24" fill="none" xmlns="http://www.w3.org/2000/svg">
<rect width="24" height="24" rx="6.4" fill="#3D99F5"/>
<path d="M16.9394 10.1163C16.9097 10.0484 16.8682 9.98643 16.8169 9.93313L13.0669 6.18312C13.0136 6.13177 12.9516 6.09029 12.8837 6.06062C12.865 6.05187 12.845 6.04687 12.825 6.04C12.7727 6.02227 12.7183 6.01155 12.6631 6.00813C12.65 6.00688 12.6381 6 12.625 6H8.25C7.56062 6 7 6.56062 7 7.25V17.25C7 17.9394 7.56062 18.5 8.25 18.5H15.75C16.4394 18.5 17 17.9394 17 17.25V10.375C17 10.3619 16.9931 10.35 16.9919 10.3362C16.9884 10.2811 16.9777 10.2267 16.96 10.1744C16.9542 10.1544 16.9473 10.135 16.9394 10.1163ZM14.8663 9.75H13.25V8.13375L14.8663 9.75ZM8.25 17.25V7.25H12V10.375C12 10.5408 12.0658 10.6997 12.1831 10.8169C12.3003 10.9342 12.4592 11 12.625 11H15.75L15.7513 17.25H8.25Z" fill="black"/>
<path d="M9.5 12.25H14.5V13.5H9.5V12.25ZM9.5 14.75H14.5V16H9.5V14.75ZM9.5 9.75H10.75V11H9.5V9.75Z" fill="black"/>
</svg>
