<svg width="24" height="24" viewBox="0 0 24 24" fill="none" xmlns="http://www.w3.org/2000/svg">
<rect width="24" height="24" rx="6.4" fill="#19B1D4"/>
<path d="M6.71429 7C6.3192 7 6 7.3192 6 7.71429C6 8.10938 6.3192 8.42857 6.71429 8.42857H9.57143V16.2857C9.57143 16.6808 9.89062 17 10.2857 17C10.6808 17 11 16.6808 11 16.2857V8.42857H13.8571C14.2522 8.42857 14.5714 8.10938 14.5714 7.71429C14.5714 7.3192 14.2522 7 13.8571 7H6.71429Z" fill="black"/>
<path d="M12.6964 10.75C12.4495 10.75 12.25 10.9495 12.25 11.1964C12.25 11.4434 12.4495 11.6429 12.6964 11.6429H14.4821V16.5536C14.4821 16.8005 14.6816 17 14.9286 17C15.1755 17 15.375 16.8005 15.375 16.5536V11.6429H17.1607C17.4076 11.6429 17.6071 11.4434 17.6071 11.1964C17.6071 10.9495 17.4076 10.75 17.1607 10.75H12.6964Z" fill="black"/>
</svg>
