<svg width="24" height="24" viewBox="0 0 24 24" fill="none" xmlns="http://www.w3.org/2000/svg">
<rect width="24" height="24" rx="6.4" fill="#FF8000"/>
<path fill-rule="evenodd" clip-rule="evenodd" d="M16.8 7C17.1027 6.9999 17.3943 7.11424 17.6163 7.3201C17.8383 7.52595 17.9743 7.80811 17.997 8.11L18 8.2V16.6C18.0001 16.9027 17.8858 17.1943 17.6799 17.4163C17.474 17.6383 17.1919 17.7743 16.89 17.797L16.8 17.8H7.2C6.89725 17.8001 6.60566 17.6858 6.38367 17.4799C6.16168 17.274 6.02571 16.9919 6.003 16.69L6 16.6V8.2C5.9999 7.89725 6.11424 7.60566 6.3201 7.38367C6.52595 7.16168 6.80811 7.02571 7.11 7.003L7.2 7H16.8ZM16.8 8.2H7.2V16.6H16.8V8.2ZM11.004 9.7828L11.3148 9.9208L11.5176 10.0168L11.7498 10.1308L12.0078 10.2616L12.2898 10.4116L12.594 10.5796L12.7536 10.6708L13.0644 10.8538L13.3488 11.029L13.6068 11.1928L13.8348 11.3446L14.1228 11.5426L14.3412 11.7004L14.3982 11.7424C14.4908 11.8113 14.566 11.9009 14.6178 12.004C14.6696 12.1072 14.6966 12.221 14.6966 12.3364C14.6966 12.4518 14.6696 12.5656 14.6178 12.6688C14.566 12.7719 14.4908 12.8615 14.3982 12.9304L14.2044 13.0714L13.9404 13.2562L13.7268 13.3996L13.4838 13.5574L13.212 13.7272L12.9126 13.9072L12.5922 14.0926L12.2868 14.2618L12.0042 14.4118L11.7462 14.5438L11.5146 14.6566L11.1414 14.8294L11.0034 14.8894C10.8975 14.9351 10.7823 14.9553 10.6671 14.9486C10.552 14.9418 10.44 14.9083 10.3401 14.8506C10.2402 14.7929 10.1551 14.7126 10.0918 14.6162C10.0284 14.5199 9.98839 14.41 9.975 14.2954L9.9402 13.9564L9.921 13.732L9.8958 13.3336L9.882 13.0288L9.873 12.6958L9.8706 12.5194L9.8694 12.3364C9.8694 12.2124 9.8706 12.0924 9.873 11.9764L9.882 11.6434L9.8958 11.3392L9.912 11.065L9.93 10.8244L9.975 10.378C9.98831 10.2633 10.0283 10.1533 10.0916 10.0567C10.155 9.96021 10.2401 9.87983 10.34 9.82201C10.44 9.76419 10.5521 9.73053 10.6674 9.72373C10.7827 9.71692 10.8979 9.73715 11.004 9.7828ZM11.3706 11.2834L11.109 11.1526L11.0916 11.4448L11.0784 11.7754L11.0706 12.1414L11.0694 12.3364L11.0706 12.5314L11.0784 12.8968L11.0844 13.0666L11.1 13.3786L11.109 13.5196L11.3694 13.3888L11.6616 13.2352L11.9826 13.0588L12.153 12.9616L12.4836 12.766L12.78 12.5824L13.0416 12.4144L13.1592 12.3364L12.915 12.1744L12.6354 11.998C12.4763 11.8995 12.3157 11.8035 12.1536 11.71L11.9838 11.6134L11.6634 11.437L11.3706 11.2834Z" fill="black"/>
</svg>
