<svg width="24" height="24" viewBox="0 0 24 24" fill="none" xmlns="http://www.w3.org/2000/svg">
<rect width="24" height="24" rx="6.4" fill="#7882FF"/>
<path d="M12.4297 15.125V9.5L11.375 10.5547" stroke="black" stroke-width="0.878906" stroke-linecap="round" stroke-linejoin="round"/>
<path d="M7 8.25C7 7.91848 7.1317 7.60054 7.36612 7.36612C7.60054 7.1317 7.91848 7 8.25 7H15.75C16.0815 7 16.3995 7.1317 16.6339 7.36612C16.8683 7.60054 17 7.91848 17 8.25V15.75C17 16.0815 16.8683 16.3995 16.6339 16.6339C16.3995 16.8683 16.0815 17 15.75 17H8.25C7.91848 17 7.60054 16.8683 7.36612 16.6339C7.1317 16.3995 7 16.0815 7 15.75V8.25Z" stroke="black" stroke-width="1.25" stroke-linecap="round" stroke-linejoin="round"/>
</svg>
