<svg width="24" height="24" viewBox="0 0 24 24" fill="none" xmlns="http://www.w3.org/2000/svg">
<rect width="24" height="24" rx="6.4" fill="#19B1D4"/>
<path d="M4 14.25V10H5.0625V11.4167H6.47917V10H7.54167V14.25H6.47917V12.4792H5.0625V14.25H4ZM9.48958 14.25V11.0625H8.25V10H11.7917V11.0625H10.5521V14.25H9.48958ZM12.5 14.25V10.7083C12.5 10.5076 12.568 10.3395 12.704 10.204C12.84 10.0685 13.0081 10.0005 13.2083 10H16.3958C16.5965 10 16.7649 10.068 16.9009 10.204C17.0369 10.34 17.1046 10.5081 17.1042 10.7083V14.25H16.0417V11.0625H15.3333V13.5417H14.2708V11.0625H13.5625V14.25H12.5ZM18.1667 14.25V10H19.2292V13.1875H21V14.25H18.1667Z" fill="black"/>
</svg>
