<svg width="24" height="24" viewBox="0 0 24 24" fill="none" xmlns="http://www.w3.org/2000/svg">
<rect width="24" height="24" rx="6.4" fill="#19B1D4"/>
<path d="M10.032 8.22163C9.96233 8.15141 9.87946 8.09566 9.78815 8.05762C9.69685 8.01958 9.59891 8 9.5 8C9.40109 8 9.30315 8.01958 9.21185 8.05762C9.12054 8.09566 9.03767 8.15141 8.96801 8.22163L5.22163 11.968C5.15141 12.0377 5.09566 12.1205 5.05762 12.2118C5.01958 12.3032 5 12.4011 5 12.5C5 12.5989 5.01958 12.6968 5.05762 12.7882C5.09566 12.8795 5.15141 12.9623 5.22163 13.032L8.96801 16.7784C9.03767 16.8486 9.12054 16.9043 9.21185 16.9424C9.30315 16.9804 9.40109 17 9.5 17C9.59891 17 9.69685 16.9804 9.78815 16.9424C9.87946 16.9043 9.96233 16.8486 10.032 16.7784C10.1022 16.7087 10.158 16.6258 10.196 16.5345C10.234 16.4432 10.2536 16.3453 10.2536 16.2464C10.2536 16.1475 10.234 16.0495 10.196 15.9582C10.158 15.8669 10.1022 15.784 10.032 15.7144L6.8101 12.5L10.032 9.28561C10.1022 9.21595 10.158 9.13308 10.196 9.04177C10.234 8.95047 10.2536 8.85253 10.2536 8.75362C10.2536 8.65471 10.234 8.55677 10.196 8.46547C10.158 8.37416 10.1022 8.29129 10.032 8.22163ZM18.274 11.968L14.5276 8.22163C14.4578 8.15177 14.3748 8.09636 14.2836 8.05855C14.1923 8.02074 14.0945 8.00128 13.9957 8.00128C13.7961 8.00128 13.6048 8.08054 13.4637 8.22163C13.3938 8.2915 13.3384 8.37443 13.3006 8.46571C13.2628 8.55699 13.2433 8.65482 13.2433 8.75362C13.2433 8.95315 13.3226 9.14451 13.4637 9.28561L16.6856 12.5L13.4637 15.7144C13.3934 15.784 13.3377 15.8669 13.2997 15.9582C13.2616 16.0495 13.242 16.1475 13.242 16.2464C13.242 16.3453 13.2616 16.4432 13.2997 16.5345C13.3377 16.6258 13.3934 16.7087 13.4637 16.7784C13.5333 16.8486 13.6162 16.9043 13.7075 16.9424C13.7988 16.9804 13.8967 17 13.9957 17C14.0946 17 14.1925 16.9804 14.2838 16.9424C14.3751 16.9043 14.458 16.8486 14.5276 16.7784L18.274 13.032C18.3442 12.9623 18.4 12.8795 18.438 12.7882C18.4761 12.6968 18.4957 12.5989 18.4957 12.5C18.4957 12.4011 18.4761 12.3032 18.438 12.2118C18.4 12.1205 18.3442 12.0377 18.274 11.968Z" fill="black"/>
</svg>
