<svg width="24" height="24" viewBox="0 0 24 24" fill="none" xmlns="http://www.w3.org/2000/svg">
<rect width="24" height="24" rx="6.4" fill="#19B1D4"/>
<path d="M8.00272 13.9229H9.64986V13.2914H8.08557C8.03081 13.2914 7.98057 13.2686 7.93486 13.2229C7.88867 13.1771 7.86557 13.1267 7.86557 13.0714V10.9286C7.86557 10.8738 7.88867 10.8233 7.93486 10.7771C7.98057 10.7314 8.03081 10.7086 8.08557 10.7086H9.652V10.0771H8.00272C7.79129 10.0771 7.61034 10.1524 7.45986 10.3029C7.30891 10.4533 7.23343 10.6343 7.23343 10.8457V13.1536C7.23343 13.365 7.30867 13.5462 7.45915 13.6971C7.6101 13.8476 7.79176 13.9229 8.00272 13.9229ZM10.6513 13.9229H12.2991C12.511 13.9229 12.692 13.8476 12.842 13.6971C12.993 13.5467 13.0684 13.3657 13.0684 13.1543V12.4943C13.0684 12.2829 12.9932 12.0976 12.8427 11.9386C12.6922 11.78 12.5113 11.7007 12.2999 11.7007H11.5027C11.448 11.7007 11.3975 11.6779 11.3513 11.6321C11.3051 11.5864 11.2822 11.536 11.2827 11.4807V10.9286C11.2827 10.8738 11.3056 10.8233 11.3513 10.7771C11.397 10.731 11.4475 10.7081 11.5027 10.7086H13.0684V10.0771H11.4213C11.2094 10.0771 11.0282 10.1524 10.8777 10.3029C10.7272 10.4533 10.652 10.6343 10.652 10.8457V11.5057C10.652 11.7171 10.7272 11.901 10.8777 12.0571C11.0282 12.2133 11.2091 12.2914 11.4206 12.2914H12.2177C12.2725 12.2914 12.323 12.3143 12.3691 12.36C12.4153 12.4057 12.4382 12.456 12.4377 12.5107V13.0714C12.4377 13.1267 12.4146 13.1771 12.3684 13.2229C12.3227 13.2686 12.2725 13.2914 12.2177 13.2914H10.6499L10.6513 13.9229ZM15.0356 13.9229H15.887L16.9999 10.0771H16.3406L15.462 13.1186L14.582 10.0771H13.9227L15.0356 13.9229ZM6.72557 17C6.39653 17 6.122 16.89 5.902 16.67C5.682 16.45 5.57177 16.1752 5.57129 15.8457V8.15429C5.57129 7.82524 5.68153 7.55071 5.902 7.33071C6.12248 7.11071 6.39676 7.00048 6.72486 7H17.2749C17.6034 7 17.8777 7.11024 18.0977 7.33071C18.3177 7.55119 18.428 7.82571 18.4284 8.15429V15.8464C18.4284 16.175 18.3182 16.4495 18.0977 16.67C17.8772 16.8905 17.603 17.0005 17.2749 17H6.72557ZM6.72557 16.2857H17.2749C17.3844 16.2857 17.4851 16.24 17.577 16.1486C17.6689 16.0571 17.7146 15.9562 17.7141 15.8457V8.15429C17.7141 8.04429 17.6684 7.94333 17.577 7.85143C17.4856 7.75952 17.3849 7.71381 17.2749 7.71429H6.72486C6.61534 7.71429 6.51462 7.76 6.42272 7.85143C6.33081 7.94286 6.2851 8.04381 6.28557 8.15429V15.8464C6.28557 15.956 6.33129 16.0567 6.42272 16.1486C6.51415 16.2405 6.61486 16.2862 6.72486 16.2857" fill="black"/>
</svg>
