<svg width="24" height="24" viewBox="0 0 24 24" fill="none" xmlns="http://www.w3.org/2000/svg">
<rect width="24" height="24" rx="6.4" fill="#19B1D4"/>
<path d="M16.8 10.1143V9.59998H14.7428V13.2H15.2571V11.6571H16.5428V11.1428H15.2571V10.1143H16.8ZM11.1428 9.59998H9.59998V13.2H10.1143V11.9143H11.1428C11.2792 11.9143 11.41 11.8601 11.5065 11.7636C11.6029 11.6672 11.6571 11.5364 11.6571 11.4V10.1143C11.6571 9.97786 11.6029 9.84705 11.5065 9.75061C11.41 9.65416 11.2792 9.59998 11.1428 9.59998ZM11.1428 11.4H10.1143V10.1143H11.1428V11.4ZM13.2 13.2H12.1714V9.59998H13.2C13.4728 9.59998 13.7344 9.70834 13.9273 9.90124C14.1202 10.0941 14.2285 10.3558 14.2285 10.6285V12.1714C14.2285 12.4442 14.1202 12.7058 13.9273 12.8987C13.7344 13.0916 13.4728 13.2 13.2 13.2ZM12.6857 12.6857H13.2C13.3364 12.6857 13.4672 12.6315 13.5636 12.5351C13.6601 12.4386 13.7143 12.3078 13.7143 12.1714V10.6285C13.7143 10.4921 13.6601 10.3613 13.5636 10.2649C13.4672 10.1684 13.3364 10.1143 13.2 10.1143H12.6857V12.6857Z" fill="black"/>
<rect x="7.66659" y="6.33333" width="10" height="10" stroke="black" stroke-width="0.666667"/>
<line x1="6.33333" y1="8.66669" x2="6.33333" y2="18" stroke="black" stroke-width="0.666667"/>
<line x1="15.3333" y1="17.6667" x2="5.99992" y2="17.6667" stroke="black" stroke-width="0.666667"/>
</svg>
