<svg width="24" height="24" viewBox="0 0 24 24" fill="none" xmlns="http://www.w3.org/2000/svg">
<rect width="24" height="24" rx="6.4" fill="#FF7892"/>
<path d="M8.33333 19C7.96667 19 7.65289 18.8696 7.392 18.6087C7.13111 18.3478 7.00044 18.0338 7 17.6667V11C7 10.6333 7.13067 10.3196 7.392 10.0587C7.65333 9.79778 7.96711 9.66711 8.33333 9.66667H9V8.33333C9 7.41111 9.32511 6.62511 9.97533 5.97533C10.6256 5.32556 11.4116 5.00044 12.3333 5C13.2551 4.99956 14.0413 5.32467 14.692 5.97533C15.3427 6.626 15.6676 7.412 15.6667 8.33333V9.66667H16.3333C16.7 9.66667 17.014 9.79733 17.2753 10.0587C17.5367 10.32 17.6671 10.6338 17.6667 11V17.6667C17.6667 18.0333 17.5362 18.3473 17.2753 18.6087C17.0144 18.87 16.7004 19.0004 16.3333 19H8.33333ZM8.33333 17.6667H16.3333V11H8.33333V17.6667ZM12.3333 15.6667C12.7 15.6667 13.014 15.5362 13.2753 15.2753C13.5367 15.0144 13.6671 14.7004 13.6667 14.3333C13.6662 13.9662 13.5358 13.6524 13.2753 13.392C13.0149 13.1316 12.7009 13.0009 12.3333 13C11.9658 12.9991 11.652 13.1298 11.392 13.392C11.132 13.6542 11.0013 13.968 11 14.3333C10.9987 14.6987 11.1293 15.0127 11.392 15.2753C11.6547 15.538 11.9684 15.6684 12.3333 15.6667ZM10.3333 9.66667H14.3333V8.33333C14.3333 7.77778 14.1389 7.30556 13.75 6.91667C13.3611 6.52778 12.8889 6.33333 12.3333 6.33333C11.7778 6.33333 11.3056 6.52778 10.9167 6.91667C10.5278 7.30556 10.3333 7.77778 10.3333 8.33333V9.66667Z" fill="black"/>
</svg>
