<svg width="24" height="24" viewBox="0 0 24 24" fill="none" xmlns="http://www.w3.org/2000/svg">
<rect width="24" height="24" rx="6.4" fill="#FF7892"/>
<path d="M15 6C14.187 6.01967 13.415 6.36058 12.8527 6.94811C12.2905 7.53564 11.9839 8.32196 12 9.135V10.875H6V17.25C6 17.4489 6.07902 17.6397 6.21967 17.7803C6.36032 17.921 6.55109 18 6.75 18H13.5C13.6989 18 13.8897 17.921 14.0303 17.7803C14.171 17.6397 14.25 17.4489 14.25 17.25V10.875H12.75V9.135C12.7338 8.52084 12.9614 7.92524 13.383 7.47835C13.8046 7.03146 14.3859 6.76961 15 6.75C15.6141 6.76961 16.1954 7.03146 16.617 7.47835C17.0386 7.92524 17.2662 8.52084 17.25 9.135V11.6962C17.25 11.7957 17.2895 11.8911 17.3598 11.9614C17.4302 12.0317 17.5255 12.0712 17.625 12.0712C17.7245 12.0712 17.8198 12.0317 17.8902 11.9614C17.9605 11.8911 18 11.7957 18 11.6962V9.135C18.0161 8.32196 17.7095 7.53564 17.1473 6.94811C16.585 6.36058 15.813 6.01967 15 6ZM10.5 14.7113V15.75H9.75V14.6775C9.56743 14.5836 9.42247 14.43 9.33917 14.2424C9.25587 14.0547 9.23924 13.8442 9.29204 13.6458C9.34484 13.4474 9.4639 13.273 9.62946 13.1515C9.79501 13.0301 9.99712 12.9689 10.2022 12.9781C10.4073 12.9874 10.6031 13.0664 10.7571 13.2023C10.9111 13.3381 11.014 13.5225 11.0488 13.7248C11.0835 13.9272 11.0481 14.1353 10.9483 14.3148C10.8484 14.4942 10.6903 14.6341 10.5 14.7113Z" fill="black"/>
</svg>
