<svg width="24" height="24" viewBox="0 0 24 24" fill="none" xmlns="http://www.w3.org/2000/svg">
<rect width="24" height="24" rx="6.4" fill="#48BD54"/>
<path d="M6 14.6088L10.6355 12.6221L13.2844 13.8261M15.1909 18L16.5954 16.5954M16.5954 16.5954L18 15.1909M16.5954 16.5954L15.1909 15.1909M16.5954 16.5954L18 18M14.6088 10.6355C14.2575 10.6355 13.9207 10.496 13.6723 10.2476C13.4239 9.99921 13.2844 9.66233 13.2844 9.31107C13.2844 8.95981 13.4239 8.62294 13.6723 8.37456C13.9207 8.12618 14.2575 7.98664 14.6088 7.98664C14.9601 7.98664 15.2969 8.12618 15.5453 8.37456C15.7937 8.62294 15.9332 8.95981 15.9332 9.31107C15.9332 9.66233 15.7937 9.99921 15.5453 10.2476C15.2969 10.496 14.9601 10.6355 14.6088 10.6355Z" stroke="black" stroke-width="0.993323" stroke-linecap="round" stroke-linejoin="round"/>
<path d="M12.6222 17.9199H6.39733C6.29195 17.9199 6.19089 17.878 6.11637 17.8035C6.04186 17.729 6 17.6279 6 17.5225V6.39733C6 6.29195 6.04186 6.19089 6.11637 6.11637C6.19089 6.04186 6.29195 6 6.39733 6H17.5225C17.6279 6 17.729 6.04186 17.8035 6.11637C17.878 6.19089 17.9199 6.29195 17.9199 6.39733V12.6222" stroke="black" stroke-width="0.993323" stroke-linecap="round" stroke-linejoin="round"/>
</svg>
