<svg width="24" height="24" viewBox="0 0 24 24" fill="none" xmlns="http://www.w3.org/2000/svg">
<rect width="24" height="24" rx="6.4" fill="#FF7892"/>
<path d="M16.7086 15.6364L17.9318 16.8832L17.1164 17.7045L15.8814 16.4695L14.6286 17.7223L13.7955 16.8832L15.0423 15.6364L13.7955 14.3718L14.6109 13.5505L15.8636 14.8032L17.1164 13.5505L17.9614 14.3955L16.7086 15.6364ZM17.6364 10.9091C17.6364 11.4409 17.5773 11.9609 17.465 12.475C17.1223 12.2977 16.75 12.1795 16.3423 12.1205C16.4132 11.7659 16.4545 11.3995 16.4545 11.0391V8.13182L12.3182 6.28818L8.18182 8.13182V11.0391C8.18182 13.5918 10.1023 16.2273 12.3182 16.8182L12.5014 16.765C12.6136 17.1314 12.8086 17.4741 13.0391 17.7755L12.3182 18C9.26909 17.2555 7 14.1886 7 10.9091V7.36364L12.3182 5L17.6364 7.36364V10.9091Z" fill="black"/>
</svg>
