<svg width="24" height="24" viewBox="0 0 24 24" fill="none" xmlns="http://www.w3.org/2000/svg">
<rect width="24" height="24" rx="6.4" fill="#F55454"/>
<path d="M9.01966 10.5026H10.5026V9.01966L8.7725 7.28956C9.32595 7.02524 9.94773 6.939 10.5522 7.04272C11.1567 7.14643 11.7142 7.435 12.1479 7.86869C12.5816 8.30237 12.8701 8.85985 12.9738 9.46434C13.0776 10.0688 12.9913 10.6906 12.727 11.2441L15.6929 14.2099C15.8895 14.4066 16 14.6733 16 14.9514C16 15.2295 15.8895 15.4962 15.6929 15.6929C15.4962 15.8895 15.2295 16 14.9514 16C14.6733 16 14.4066 15.8895 14.2099 15.6929L11.2441 12.727C10.6906 12.9913 10.0688 13.0776 9.46434 12.9738C8.85985 12.8701 8.30237 12.5816 7.86869 12.1479C7.435 11.7142 7.14643 11.1567 7.04272 10.5522C6.939 9.94773 7.02524 9.32595 7.28956 8.7725L9.01966 10.5026Z" stroke="black" stroke-width="0.988625" stroke-linecap="round" stroke-linejoin="round"/>
</svg>
