<svg width="24" height="24" viewBox="0 0 24 24" fill="none" xmlns="http://www.w3.org/2000/svg">
<rect width="24" height="24" rx="6.4" fill="#7882FF"/>
<path d="M14.1318 15.6794L14.589 16.4386C14.0226 16.7802 13.4004 17.0193 12.751 17.1449L12.5852 16.2886C13.1325 16.1778 13.656 15.9716 14.1318 15.6794ZM10.9131 16.3072L10.7588 17.1814C10.1067 17.0754 9.47814 16.8564 8.90138 16.5341L9.32294 15.7747C9.81764 16.0441 10.3559 16.2244 10.9131 16.3072ZM17.0262 13.4135C16.811 14.039 16.4873 14.6217 16.0699 15.1348L15.382 14.5759C15.7359 14.142 16.0104 13.6491 16.1929 13.1198L17.0262 13.4135ZM16.1442 9.84894L16.955 9.53769C17.1967 10.1494 17.3301 10.7985 17.3494 11.4559L17.1695 11.4619L16.4812 11.4816C16.4715 10.9214 16.3639 10.3672 16.1631 9.84408L16.1442 9.84894ZM7.3799 15.2886C6.9473 14.7881 6.60628 14.2153 6.37248 13.5965L7.18336 13.2852C7.38454 13.8076 7.67394 14.2916 8.03896 14.7161L7.3799 15.2886ZM5.97813 11.6782C5.9597 10.8451 6.12503 10.018 6.46234 9.25597C6.79966 8.4939 7.30069 7.81548 7.92983 7.26893C8.55897 6.72238 9.30077 6.32111 10.1025 6.09365C10.9043 5.86618 11.7463 5.8181 12.5687 5.95282L11.5238 4.75005L12.1829 4.1775L14.473 6.81373L11.8368 9.10389L11.2643 8.44484L12.9745 6.95909C12.2548 6.75529 11.4974 6.72247 10.7627 6.86324C10.028 7.00402 9.33639 7.31449 8.74297 7.76992C8.14955 8.22535 7.67074 8.81312 7.34472 9.48638C7.01871 10.1596 6.85451 10.8998 6.86521 11.6477L5.97813 11.6782Z" fill="black"/>
</svg>
