<svg width="24" height="24" viewBox="0 0 24 24" fill="none" xmlns="http://www.w3.org/2000/svg">
<rect width="24" height="24" rx="6.4" fill="#FF7892"/>
<path d="M15.1 9.2C14.8083 9.2 14.5605 9.09803 14.3566 8.8941C14.1527 8.69017 14.0505 8.44213 14.05 8.15C14.05 7.95167 14.1492 7.68917 14.3475 7.3625C14.5458 7.03583 14.7967 6.715 15.1 6.4C15.4033 6.715 15.6542 7.03583 15.8525 7.3625C16.0508 7.68917 16.15 7.95167 16.15 8.15C16.15 8.44167 16.048 8.6897 15.8441 8.8941C15.6402 9.0985 15.3921 9.20047 15.1 9.2ZM16.85 14.1C16.36 14.1 15.9458 13.9308 15.6075 13.5925C15.2692 13.2542 15.1 12.84 15.1 12.35C15.1 11.9417 15.2808 11.4372 15.6425 10.8366C16.0042 10.236 16.4067 9.69047 16.85 9.2C17.2933 9.69 17.6958 10.2355 18.0575 10.8366C18.4192 11.4377 18.6 11.9421 18.6 12.35C18.6 12.84 18.4308 13.2542 18.0925 13.5925C17.7542 13.9308 17.34 14.1 16.85 14.1ZM9.5 16.2H10.9V14.8H12.3V13.4H10.9V12H9.5V13.4H8.1V14.8H9.5V16.2ZM7.4 19C7.015 19 6.68553 18.863 6.4116 18.5891C6.13767 18.3152 6.00047 17.9855 6 17.6V12C6 10.95 6.3325 10.04 6.9975 9.27C7.6625 8.5 8.49667 8.03333 9.5 7.87V6.4H8.1V5H12.3C12.6967 5 13.07 5.06137 13.42 5.1841C13.77 5.30683 14.0967 5.4788 14.4 5.7L13.385 6.715C13.2217 6.62167 13.0497 6.54583 12.8691 6.4875C12.6885 6.42917 12.4988 6.4 12.3 6.4H10.9V7.87C11.9033 8.03333 12.7375 8.5 13.4025 9.27C14.0675 10.04 14.4 10.95 14.4 12V17.6C14.4 17.985 14.263 18.3147 13.9891 18.5891C13.7152 18.8635 13.3855 19.0005 13 19H7.4ZM7.4 17.6H13V12C13 11.23 12.7258 10.5708 12.1775 10.0225C11.6292 9.47417 10.97 9.2 10.2 9.2C9.43 9.2 8.77083 9.47417 8.2225 10.0225C7.67417 10.5708 7.4 11.23 7.4 12V17.6Z" fill="black"/>
</svg>
