<svg width="24" height="24" viewBox="0 0 24 24" fill="none" xmlns="http://www.w3.org/2000/svg">
<rect width="24" height="24" rx="6.4" fill="#F55454"/>
<path d="M10.4211 8.21053C10.4211 6.99158 9.42947 6 8.21053 6C6.99158 6 6 6.99158 6 8.21053C6 9.42947 6.99158 10.4211 8.21053 10.4211C8.56631 10.4186 8.91607 10.329 9.22926 10.1602L10.7179 11.7568L9.25389 13.2208C8.93442 13.0439 8.5757 12.9499 8.21053 12.9474C6.99158 12.9474 6 13.9389 6 15.1579C6 16.3768 6.99158 17.3684 8.21053 17.3684C9.42947 17.3684 10.4211 16.3768 10.4211 15.1579C10.4211 14.7783 10.3162 14.4265 10.1469 14.1145L11.58 12.6821L14.8421 16.1817C15.1974 16.537 15.6792 16.7367 16.1817 16.7368H18L10.0105 9.48505C10.2669 9.12379 10.4211 8.68611 10.4211 8.21053ZM8.21053 9.15789C7.68821 9.15789 7.26316 8.73284 7.26316 8.21053C7.26316 7.68821 7.68821 7.26316 8.21053 7.26316C8.73284 7.26316 9.15789 7.68821 9.15789 8.21053C9.15789 8.73284 8.73284 9.15789 8.21053 9.15789ZM8.21053 16.1053C7.68821 16.1053 7.26316 15.6802 7.26316 15.1579C7.26316 14.6356 7.68821 14.2105 8.21053 14.2105C8.73284 14.2105 9.15789 14.6356 9.15789 15.1579C9.15789 15.6802 8.73284 16.1053 8.21053 16.1053Z" fill="black"/>
<path d="M14.8421 7.18675L12.5009 9.97454L13.3939 10.8676L18 6.63159H16.1817C15.6792 6.6317 15.1974 6.83139 14.8421 7.18675Z" fill="black"/>
</svg>
