<svg width="24" height="24" viewBox="0 0 24 24" fill="none" xmlns="http://www.w3.org/2000/svg">
<rect width="24" height="24" rx="6.4" fill="#19B1D4"/>
<path d="M11.2 16H8C6.89333 16 5.95013 15.6099 5.1704 14.8296C4.39067 14.0493 4.00053 13.1061 4 12C3.99947 10.8939 4.3896 9.95067 5.1704 9.1704C5.9512 8.39013 6.8944 8 8 8H11.2V9.6H8C7.33333 9.6 6.76667 9.83333 6.3 10.3C5.83333 10.7667 5.6 11.3333 5.6 12C5.6 12.6667 5.83333 13.2333 6.3 13.7C6.76667 14.1667 7.33333 14.4 8 14.4H11.2V16ZM8.8 12.8V11.2H15.2V12.8H8.8ZM12.8 16V14.4H16C16.6667 14.4 17.2333 14.1667 17.7 13.7C18.1667 13.2333 18.4 12.6667 18.4 12C18.4 11.3333 18.1667 10.7667 17.7 10.3C17.2333 9.83333 16.6667 9.6 16 9.6H12.8V8H16C17.1067 8 18.0501 8.39013 18.8304 9.1704C19.6107 9.95067 20.0005 10.8939 20 12C19.9995 13.1061 19.6093 14.0496 18.8296 14.8304C18.0499 15.6112 17.1067 16.0011 16 16H12.8Z" fill="black"/>
</svg>
